HIERARCHY
ROOT root
{
	OFFSET 0.000000 0.000000 0.000000
	CHANNELS 6 Xposition Yposition Zposition Zrotation Yrotation Xrotation
	JOINT lhip
	{
		OFFSET 0.058581 -0.082280 -0.017664
		CHANNELS 3 Zrotation Yrotation Xrotation
		JOINT lknee
		{
			OFFSET 0.043451 -0.386469 0.008037
			CHANNELS 3 Zrotation Yrotation Xrotation
			JOINT lankle
			{
				OFFSET -0.014790 -0.426874 -0.037428
				CHANNELS 3 Zrotation Yrotation Xrotation
				JOINT ltoe
				{
					OFFSET 0.041054 -0.060286 0.122042
					CHANNELS 3 Zrotation Yrotation Xrotation
					End Site
					{
						OFFSET 0.000000 0.000000 0.000000
					}
				}
			}
		}
	}
	JOINT rhip
	{
		OFFSET -0.060310 -0.090513 -0.013543
		CHANNELS 3 Zrotation Yrotation Xrotation
		JOINT rknee
		{
			OFFSET -0.043257 -0.383688 -0.004843
			CHANNELS 3 Zrotation Yrotation Xrotation
			JOINT rankle
			{
				OFFSET 0.019056 -0.420046 -0.034562
				CHANNELS 3 Zrotation Yrotation Xrotation
				JOINT rtoe
				{
					OFFSET -0.034840 -0.062106 0.130323
					CHANNELS 3 Zrotation Yrotation Xrotation
					End Site
					{
						OFFSET 0.000000 0.000000 0.000000
					}
				}
			}
		}
	}
	JOINT lowerback
	{
		OFFSET 0.004439 0.124404 -0.038385
		CHANNELS 3 Zrotation Yrotation Xrotation
		JOINT upperback
		{
			OFFSET 0.004488 0.137956 0.026820
			CHANNELS 3 Zrotation Yrotation Xrotation
			JOINT chest
			{
				OFFSET -0.002265 0.056032 0.002855
				CHANNELS 3 Zrotation Yrotation Xrotation
				JOINT lowerneck
				{
					OFFSET -0.013390 0.211636 -0.033468
					CHANNELS 3 Zrotation Yrotation Xrotation
					JOINT upperneck
					{
						OFFSET 0.010113 0.088937 0.050410
						CHANNELS 3 Zrotation Yrotation Xrotation
						End Site
						{
							OFFSET 0.000000 0.000000 0.000000
						}
					}
				}
				JOINT lclavicle
				{
					OFFSET 0.071702 0.114000 -0.018898
					CHANNELS 3 Zrotation Yrotation Xrotation
					JOINT lshoulder
					{
						OFFSET 0.122921 0.045205 -0.019046
						CHANNELS 3 Zrotation Yrotation Xrotation
						JOINT lelbow
						{
							OFFSET 0.255332 -0.015649 -0.022946
							CHANNELS 3 Zrotation Yrotation Xrotation
							JOINT lwrist
							{
								OFFSET 0.265709 0.012698 -0.007375
								CHANNELS 3 Zrotation Yrotation Xrotation
								End Site
								{
									OFFSET 0.000000 0.000000 0.000000
								}
							}
						}
					}
				}
				JOINT rclavicle
				{
					OFFSET -0.082954 0.112472 -0.023707
					CHANNELS 3 Zrotation Yrotation Xrotation
					JOINT rshoulder
					{
						OFFSET -0.113228 0.046853 -0.008472
						CHANNELS 3 Zrotation Yrotation Xrotation
						JOINT relbow
						{
							OFFSET -0.260127 -0.014369 -0.031269
							CHANNELS 3 Zrotation Yrotation Xrotation
							JOINT rwrist
							{
								OFFSET -0.269108 0.006794 -0.006027
								CHANNELS 3 Zrotation Yrotation Xrotation
								End Site
								{
									OFFSET 0.000000 0.000000 0.000000
								}
							}
						}
					}
				}
			}
		}
	}
}
MOTION
Frames: 10
Frame Time: 0.033333
0.023618 0.280071 1.082508 -166.436562 2.031077 101.306450 6.642834 3.593220 -17.077726 1.139686 2.130973 3.297163 -11.427639 7.436687 42.630858 0.000000 -0.000000 0.000000 -3.290117 -10.625443 -14.291315 0.851493 -8.837557 7.960525 15.197386 -4.605552 41.837182 0.000000 -0.000000 0.000000 2.583354 2.338192 16.482062 -1.014608 1.133944 -14.923704 2.238245 1.037586 1.477247 -5.502714 6.141216 -12.910805 5.525397 10.683894 -7.304129 -16.167363 13.517808 -1.525547 -47.875461 13.264392 7.784636 -25.274187 -39.761774 33.057862 -38.196418 -13.996181 -1.952539 12.120361 -9.855577 -0.679362 46.926577 -16.638601 10.582158 4.660375 50.681667 18.137580 33.461852 7.237056 2.256972 
0.023798 0.275988 1.081644 -166.860958 2.048612 101.664002 6.779462 3.855592 -17.493559 0.939799 1.998529 3.043276 -11.654552 7.111331 42.416155 0.000000 -0.000000 0.000000 -3.370438 -11.658900 -14.998485 1.072689 -8.724322 7.945258 16.346691 -3.946182 42.381287 0.000000 -0.000000 0.000000 2.599853 2.458474 17.587748 -1.107272 1.140443 -14.566528 2.148976 1.053985 1.668709 -5.630075 6.552063 -12.167904 5.663235 10.520163 -6.547950 -15.822629 13.679338 -1.520486 -48.189218 13.278727 7.602688 -26.007240 -40.224285 34.351950 -37.694889 -14.707197 -2.842015 11.925282 -9.826097 -0.157941 47.859501 -16.988136 10.044714 5.048108 49.396057 18.550695 32.593305 7.336943 2.256444 
0.023928 0.273304 1.080127 -166.740535 2.195425 101.795214 7.033986 4.115928 -17.352885 0.845895 1.898423 2.152475 -12.312090 7.234777 42.652484 0.000000 -0.000000 0.000000 -3.470008 -11.396879 -14.746113 1.302538 -9.571450 6.956140 16.736578 -4.336373 42.937919 0.000000 -0.000000 0.000000 2.849343 2.111445 18.711440 -1.295233 1.100397 -14.263218 2.138851 0.950964 1.776005 -5.563613 6.741826 -10.529429 5.664361 10.736144 -5.935475 -15.437836 14.046997 -1.439461 -48.515139 13.191945 7.298884 -26.474050 -40.499104 35.306431 -37.773584 -14.930291 -2.840340 11.562182 -10.200867 -0.121212 48.666366 -17.443502 9.788486 6.400146 47.737708 20.016391 32.345594 7.291263 2.249254 
0.024093 0.270045 1.079239 -166.792721 2.272329 102.306817 6.957436 4.729127 -17.703943 0.927893 2.138196 1.445642 -12.971960 7.150968 42.960965 0.000000 -0.000000 0.000000 -3.247617 -11.634660 -15.404162 1.171055 -9.847531 6.832810 17.200101 -4.092798 43.007915 0.000000 -0.000000 0.000000 2.948659 1.829483 19.114794 -1.367353 0.940026 -13.644111 2.147187 0.929147 1.859987 -5.807488 6.936858 -8.907035 5.720481 11.135236 -5.589561 -15.497545 14.294545 -1.498556 -48.483879 13.377877 6.940364 -26.562729 -40.691274 34.883714 -37.764809 -15.318059 -2.815218 11.530607 -10.556169 -0.096943 49.025197 -18.004552 9.506547 7.643457 46.649559 21.262563 32.997529 6.901547 2.886844 
0.024415 0.267141 1.078608 -166.901372 2.377525 102.334375 7.158327 5.302432 -17.668025 0.704936 2.641772 1.082247 -13.665743 6.894325 43.043073 0.000000 -0.000000 0.000000 -3.136347 -11.816346 -15.423819 1.222197 -10.783020 6.453954 17.363398 -4.223223 43.319837 0.000000 -0.000000 0.000000 2.943263 1.656086 19.975466 -1.325309 0.922473 -12.778919 2.132742 0.938957 1.876950 -6.044468 7.294023 -7.532408 5.753361 11.336897 -5.133434 -15.273860 14.334267 -1.332296 -48.841925 13.067415 6.703486 -26.595559 -40.481934 34.149362 -37.913906 -16.630292 -4.132602 11.369869 -10.828055 0.130166 49.705517 -18.557208 9.496316 8.398046 45.755011 22.199724 33.662594 6.763165 2.990260 
0.024527 0.264611 1.077829 -167.168133 2.518844 102.165621 7.459038 5.497803 -17.546481 0.601826 2.628247 1.029939 -14.304271 6.966591 43.128524 0.000000 -0.000000 0.000000 -3.114512 -11.897138 -15.176219 1.206641 -10.936359 6.059818 17.937432 -3.556912 43.335709 0.000000 -0.000000 0.000000 3.038557 1.587717 21.194474 -1.494656 0.789611 -12.291343 2.170561 0.856921 1.922255 -6.154808 7.811457 -5.963424 5.727119 11.792250 -4.660010 -14.992179 14.377563 -1.143974 -49.303982 13.079921 6.272127 -26.361092 -40.775462 33.639564 -38.314658 -17.578808 -4.913322 10.990495 -10.908252 0.552673 50.525023 -18.960541 9.347345 9.746721 44.735816 23.840225 34.018327 6.845825 2.950009 
0.024753 0.262407 1.076887 -167.489683 2.568982 102.216399 7.636172 5.530741 -17.753507 0.577058 2.580919 1.209710 -14.859462 7.085835 42.904000 0.000000 -0.000000 0.000000 -3.213359 -11.894826 -15.316790 1.324636 -10.867378 5.924366 18.347450 -3.228165 43.287385 0.000000 -0.000000 0.000000 2.958455 1.497788 22.011502 -1.658693 0.698176 -11.846956 2.065930 0.906249 2.097979 -6.238567 7.951901 -4.383972 5.917252 11.866525 -4.302149 -14.774184 14.312093 -1.033618 -49.402195 13.164800 6.270672 -26.650308 -41.574838 34.311261 -38.111849 -17.567823 -5.341239 10.873956 -10.749369 0.879349 51.254467 -19.555316 9.143295 10.978230 43.745907 25.396980 34.604426 6.819171 2.903733 
0.025118 0.260262 1.076347 -167.730149 2.728025 102.111113 7.934467 5.455963 -17.605362 0.553732 2.777552 0.985823 -15.127546 7.174038 43.038472 0.000000 -0.000000 0.000000 -3.095361 -11.673987 -15.454087 1.257045 -10.944907 6.007888 18.576358 -3.071595 43.365771 0.000000 -0.000000 0.000000 2.976927 1.226732 23.121715 -1.854733 0.614942 -11.361013 1.981417 0.915712 2.175155 -6.471188 8.231213 -3.144105 6.022844 12.154900 -3.626332 -14.525496 14.276118 -0.916818 -49.704039 13.136726 6.090773 -26.679128 -42.059034 34.847426 -38.346780 -17.643888 -5.249651 10.513680 -10.622420 1.198946 52.224094 -19.818581 9.063497 11.863828 42.973796 26.523606 34.875029 6.724953 3.338320 
0.025388 0.257528 1.076075 -168.038003 2.930809 102.024507 8.013175 5.990912 -17.629536 0.603865 2.940002 0.994090 -15.357426 7.238647 43.079936 0.000000 -0.000000 0.000000 -2.907390 -11.702869 -15.785866 1.190474 -11.258224 6.193882 18.645659 -3.206468 43.853054 0.000000 -0.000000 0.000000 3.002369 0.982302 24.146338 -2.057802 0.631700 -10.700692 1.913326 0.864240 2.407705 -6.915986 8.398713 -2.322872 6.070111 12.527297 -3.103342 -14.299800 14.004811 -0.831390 -50.158711 13.058512 5.706721 -26.636704 -42.295179 34.900533 -38.139725 -17.970970 -5.746354 10.032580 -10.314299 1.311856 53.142172 -20.106914 8.971431 13.006907 42.297779 28.259522 35.797575 6.549484 3.390507 
0.025844 0.254896 1.075816 -168.402913 3.097775 102.082244 8.084038 6.568622 -17.666671 0.645450 3.421812 0.710630 -15.798060 7.101929 43.273076 0.000000 -0.000000 0.000000 -2.715987 -11.507477 -16.151862 0.995712 -10.775958 6.444119 19.109025 -2.495582 43.588583 0.000000 -0.000000 0.000000 2.990159 0.850452 25.126877 -2.326247 0.591661 -10.022794 1.785386 0.795502 2.403488 -7.226402 8.910709 -1.230652 6.002822 12.943821 -3.154549 -13.932467 13.700553 -0.564282 -50.597102 13.090604 5.421257 -26.698312 -42.567933 34.691676 -37.444619 -18.518912 -6.338677 9.667698 -9.963641 1.771972 54.023091 -20.236388 8.859826 13.772128 42.022815 29.040365 34.773965 7.146096 3.844125 
